<?xml version="1.0" encoding="UTF-8"?> <svg xmlns="http://www.w3.org/2000/svg" xmlns:xlink="http://www.w3.org/1999/xlink" width="350px" height="301px" viewBox="0 0 350 301"><!-- Generator: sketchtool 53.2 (72643) - https://sketchapp.com --><title>7C415E42-09F2-453C-B6B4-72B31EDB524C</title><desc>Created with sketchtool.</desc><defs><linearGradient x1="50.0001625%" y1="24.0248882%" x2="50.0001625%" y2="0.000326752278%" id="linearGradient-1"><stop stop-color="#FFFFFF" offset="0%"></stop><stop stop-color="#E2E0EC" offset="100%"></stop></linearGradient><polyline id="path-2" points="4.76222222 6.33111111 2.21333333 1.74888889 4.76222222 6.33111111"></polyline><linearGradient x1="240.198029%" y1="4503.10378%" x2="-1210.42714%" y2="-5499.61203%" id="linearGradient-4"><stop stop-color="#B2B2C4" offset="0%"></stop><stop stop-color="#CECDC8" offset="100%"></stop></linearGradient><linearGradient x1="96.9540282%" y1="50%" x2="0%" y2="50%" id="linearGradient-5"><stop stop-color="#F66B1C" offset="0%"></stop><stop stop-color="#F80100" offset="100%"></stop></linearGradient><path d="M1.40666667,7.76666667 C1.26222222,5.74888889 1.01555556,3.72888889 0.884444444,1.70888889 L0.908888889,1.71555556 C1.03777778,3.73333333 1.26222222,5.75333333 1.40666667,7.76666667" id="path-6"></path><linearGradient x1="589.686312%" y1="4177.25605%" x2="-133.945098%" y2="-3388.99486%" id="linearGradient-8"><stop stop-color="#B2B2C4" offset="0%"></stop><stop stop-color="#CECDC8" offset="100%"></stop></linearGradient><linearGradient x1="96.9540282%" y1="50%" x2="0%" y2="50%" id="linearGradient-9"><stop stop-color="#F66B1C" offset="0%"></stop><stop stop-color="#F80100" offset="100%"></stop></linearGradient></defs><g id="Uudet" stroke="none" stroke-width="1" fill="none" fill-rule="evenodd"><g id="Product---Search-platform" transform="translate(-200.000000, -1539.000000)"><g id="Group-19" transform="translate(200.000000, 1539.000000)"><g id="Group-18" transform="translate(0.000000, 197.000000)"><path d="M2.4,24.944 C2.4,37.396 12.494,47.49 24.946,47.49 L339.034,47.49 L339.034,2.398 L24.946,2.398 C12.494,2.398 2.4,12.492 2.4,24.944 Z" id="Fill-94" fill="url(#linearGradient-1)"></path><path d="M129.874,49.89 L24.946,49.89 C11.19,49.89 -9.37916411e-13,38.7 -9.37916411e-13,24.944 C-9.37916411e-13,11.19 11.19,-1.49213975e-13 24.946,-1.49213975e-13 L349.874,-1.49213975e-13 L349.874,4.798 L24.946,4.798 C13.836,4.798 4.798,13.836 4.798,24.944 C4.798,36.052 13.836,45.09 24.946,45.09 L349.874,45.09 L349.874,49.89" id="Fill-102" fill="#DF5331"></path></g><g id="Group-7" transform="translate(89.000000, 123.000000) scale(-1, 1) translate(-89.000000, -123.000000) translate(33.000000, 48.000000)"><path d="M74.7067138,12.5231405 C74.4240692,8.24380165 74.1091931,3.83057851 72.1753088,1.42108547e-13 C58.6579535,16.3487603 53.5951436,39.3347107 58.9901849,59.8487603 L62.9769617,63.5528926 C69.5521684,57.3570248 73.1100196,48.4933884 74.5009287,39.5677686 C75.8918378,30.6396694 75.3017551,21.5380165 74.7067138,12.5231405" id="Fill-37" fill="#D6D6E4"></path><path d="M111.043904,35.7446281 C110.756301,35.414876 110.305061,35.2958678 109.878615,35.1991736 C101.024896,33.2206612 91.3207634,35.4694215 84.242251,41.1446281 C77.1612593,46.8198347 72.8546477,55.8024793 72.8596064,64.8743802 L75.5447303,68.1173554 C81.2100196,69.6644628 87.1331601,66.7760331 91.8339865,63.2553719 C100.427375,56.8239669 107.166218,47.9380165 111.038945,37.9264463 C111.316631,37.2099174 111.552168,36.3198347 111.043904,35.7446281" id="Fill-38" fill="#D6D6E4"></path><path d="M23.0893584,35.253719 C17.064565,30.3595041 10.0554741,25.5743802 2.30754025,26.0479339 C1.4868791,26.1 0.544730337,26.2909091 0.162912155,27.0173554 C-0.68502173,28.6239669 2.02737496,29.831405 2.5529948,31.5694215 C2.86043282,32.5809917 2.36208571,33.6371901 2.15382125,34.6760331 C1.77200306,36.5727273 2.3744824,38.5239669 3.09101133,40.3214876 C10.1769617,58.0983471 30.2372923,69.7066116 49.1819204,66.9892562 L51.5397717,63.2876033 C42.9786146,53.0652893 33.4381188,43.6636364 23.0893584,35.253719" id="Fill-39" fill="#D6D6E4"></path><path d="M45.2943171,64.4132231 C58.8116725,77.246281 60.5447303,96.2876033 58.2141518,113.858678 C57.7083667,117.681818 63.7257221,117.644628 64.2290279,113.858678 C66.7678708,94.7206612 64.1546477,74.0305785 49.5463832,60.1586777 C46.7397717,57.4958678 42.4802675,61.7404959 45.2943171,64.4132231" id="Fill-40" fill="#D6D6E4"></path><path d="M58.4943171,58.3140496 C61.3529948,75.2057851 57.7083667,92.2735537 59.5133254,109.244628 C59.9199369,113.055372 65.9372923,113.095041 65.5282014,109.244628 C63.6637386,91.7157025 67.2488626,74.1842975 64.2934907,56.714876 C63.6488626,52.9066116 57.8521684,54.5231405 58.4943171,58.3140496" id="Fill-41" fill="#D6D6E4"></path><path d="M76.1199369,57.1190083 C71.1587799,64.5619835 66.1480361,72.6867769 63.827375,81.4140496 C61.3133254,90.8826446 62.0298543,101.536364 61.59597,111.26281 C61.4248956,115.133058 67.4372923,115.12314 67.610846,111.26281 C68.0199369,102.094215 67.3579535,91.9214876 69.6290279,83.0132231 C71.7017551,74.8760331 76.6877055,67.0933884 81.3116725,60.153719 C83.4637386,56.9231405 78.257127,53.9082645 76.1199369,57.1190083" id="Fill-42" fill="#D6D6E4"></path><path d="M82.89597,149.139669 L49.3257221,149.139669 C47.9472097,149.139669 46.7397717,148.212397 46.3877055,146.878512 L34.9579535,103.738017 C34.4472097,101.809091 35.9025816,99.9198347 37.8984493,99.9198347 L94.3232427,99.9198347 C96.3191105,99.9198347 97.7744824,101.809091 97.2637386,103.738017 L85.8339865,146.878512 C85.4819204,148.212397 84.2744824,149.139669 82.89597,149.139669 L65.5481393,112.459174" id="Fill-43" fill="#AFB0CD"></path><path d="M70.6480361,6.49834711 C66.1753088,23.3504132 66.1405981,40.9190083 62.0695237,57.8479339 C61.9381188,58.3909091 62.7761353,58.6239669 62.9075403,58.0785124 C66.9786146,41.1495868 67.0158047,23.5760331 71.4860527,6.73140496 C71.6298543,6.18842975 70.7918378,5.95785124 70.6480361,6.49834711" id="Fill-44" fill="#BEBFD5"></path><path d="M76.1744824,62.9107438 C83.2653915,51.8107438 93.5372923,43.6785124 105.971177,39.3322314 C106.494317,39.1487603 106.268697,38.3107438 105.740598,38.4942149 C93.0835733,42.9173554 82.6405981,51.1735537 75.4257221,62.4719008 C75.1232427,62.9454545 75.8744824,63.3818182 76.1744824,62.9107438" id="Fill-45" fill="#BEBFD5"></path><path d="M4.31580472,31.4280992 C7.02324273,38.2338843 11.7835733,42.9743802 17.7315072,47.1396694 C26.3050609,53.1446281 37.3331601,56.1049587 45.1901849,62.8438017 C45.6860527,63.2677686 46.4100196,62.5487603 45.9116725,62.122314 C40.4447303,57.4338843 33.4802675,55.5 27.2918378,51.9694215 C18.403408,46.8966942 9.23233364,41.0429752 5.2976229,31.1578512 C5.05960637,30.5553719 4.07282951,30.8181818 4.31580472,31.4280992" id="Fill-46" fill="#BEBFD5"></path></g><g id="Group-7" transform="translate(213.000000, 150.000000) scale(-1, 1) translate(-213.000000, -150.000000) translate(96.000000, 0.000000)"><path d="M82.3274074,143.659259 L88.8274074,142.005926 L104.542963,144.688148 L113.225185,152.797037 L111.136296,159.863704 C108.625185,159.121481 107.191852,156.483704 107.934074,153.972593 L108.096296,153.423704 L105.300741,150.988148 L106.085185,154.379259 L104.080741,160.757037 C101.52963,160.001481 100.100741,157.292593 100.922963,154.761481 L101.418519,153.237037 L100.367407,151.554815 L98.4496296,150.988148 L83.7007407,154.73037 L80.8518519,153.888148 L79.8162963,152.15037 L82.3274074,143.659259" id="Fill-134" fill="#F6C9B6"></path><polyline id="Fill-135" fill="#F6C9B6" points="159.18963 280.648148 176.531852 273.885926 170.28963 257.877037 152.947407 264.639259 159.18963 280.648148"></polyline><path d="M180.118519,256.808148 L203.822963,262.421481 L214.371852,261.621481 C216.676296,261.445926 218.825185,262.797037 219.662963,264.95037 L220.791852,267.843704 L162.762963,290.47037 L158.447407,287.285926 L151.771852,270.165926 L154.614074,269.57037 L161.091852,273.703704 L169.096296,270.583704 L180.118519,256.808148" id="Fill-136" fill="#474959"></path><path d="M217.994074,262.785926 C218.707407,263.352593 219.316296,264.059259 219.662963,264.95037 L220.791852,267.843704 L162.762963,290.47037 L158.447407,287.285926 L156.367407,281.95037 L160.680741,285.132593 L217.994074,262.785926" id="Fill-137" stroke="#E2E0EC" fill="#E2E0EC"></path><polyline id="Fill-138" fill="#FFFFFE" points="184.816296 263.612593 184.296296 262.277037 191.445185 259.49037 193.896296 260.07037 184.816296 263.612593"></polyline><polyline id="Fill-139" fill="#FFFFFE" points="179.802963 260.763704 186.234074 258.257037 188.685185 258.837037 180.322963 262.097037 179.802963 260.763704"></polyline><polyline id="Fill-140" fill="#FFFFFE" points="189.382963 264.952593 188.860741 263.619259 196.425185 260.67037 198.876296 261.25037 189.382963 264.952593"></polyline><polyline id="Fill-141" fill="#474959" points="130.922963 181.297037 174.50963 259.643704 150.885185 268.323704 110.876296 212.797037 130.922963 181.297037"></polyline><polyline id="Fill-142" fill="#F6C9B6" points="63.5985185 268.919259 81.1140741 275.217037 86.9274074 259.048148 69.4118519 252.75037 63.5985185 268.919259"></polyline><path d="M95.0385185,264.699259 L109.218519,284.508148 L117.698519,290.837037 C119.54963,292.219259 120.280741,294.648148 119.498519,296.823704 L118.447407,299.745926 L59.8385185,278.67037 L58.6762963,273.434815 L64.8940741,256.143704 L67.4274074,257.561481 L69.5940741,264.934815 L77.6785185,267.841481 L95.0385185,264.699259" id="Fill-143" fill="#474959"></path><path d="M119.662963,294.094815 C119.82963,294.99037 119.822963,295.923704 119.498519,296.823704 L118.447407,299.745926 L59.8385185,278.67037 L58.6762963,273.434815 L60.6140741,268.045926 L61.7762963,273.281481 L119.662963,294.094815" id="Fill-144" stroke="#E2E0EC" fill="#E2E0EC"></path><polyline id="Fill-145" fill="#FFFFFE" points="94.1096296 272.914815 94.5940741 271.568148 101.814074 274.163704 103.280741 276.212593 94.1096296 272.914815"></polyline><polyline id="Fill-146" fill="#FFFFFE" points="92.202963 267.474815 98.6985185 269.81037 100.165185 271.859259 91.7185185 268.821481 92.202963 267.474815"></polyline><polyline id="Fill-147" fill="#FFFFFE" points="96.6696296 276.928148 97.1540741 275.579259 104.794074 278.325926 106.260741 280.377037 96.6696296 276.928148"></polyline><g id="Group-150" transform="translate(130.487407, 182.745926)"><mask id="mask-3" fill="white"><use xlink:href="#path-2"></use></mask><g id="Clip-149"></g><polyline id="Fill-148" fill="url(#linearGradient-4)" mask="url(#mask-3)" points="4.76222222 6.33111111 2.21333333 1.74888889 4.76222222 6.33111111"></polyline></g><path d="M116.831852,221.061481 L114.445185,217.748148 L130.971852,189.045926 C131.822963,187.565926 132.38963,186.032593 132.700741,184.494815 L135.24963,189.077037 L116.831852,221.061481" id="Fill-151" fill="#3E3F4C"></path><path d="M7.06962963,155.637037 L7.06962963,170.301481 C7.06962963,184.985926 18.9740741,196.89037 33.6585185,196.89037 L88.5518519,196.89037 C91.9518519,196.89037 94.1474074,200.49037 92.5918519,203.514815 L66.522963,254.152593 L89.242963,261.517037 L130.971852,189.045926 C136.738519,179.032593 129.458519,166.541481 117.905185,166.619259 L58.6762963,158.468148 L55.3940741,153.141481 L55.3940741,147.234815 L7.06962963,155.637037" id="Fill-152" fill="#474959"></path><path d="M42.2585185,29.3414815 C42.3607407,27.3659259 42.4718519,25.3459259 43.2340741,23.5214815 C43.5718519,22.7059259 44.0362963,21.9459259 44.3474074,21.1214815 C45.3185185,18.5481481 44.7496296,15.5392593 45.9674074,13.0748148 C47.522963,9.93037037 50.3362963,5.49037037 54.2496296,5.21481481 C54.7740741,5.17925926 55.322963,5.21037037 55.7985185,4.99037037 C56.1140741,4.84148148 56.3718519,4.59481481 56.6296296,4.35925926 C58.4651852,2.69703704 63.2985185,-0.622962963 65.8518519,1.08592593 C66.2296296,1.33925926 66.542963,1.67925926 66.9362963,1.90592593 C68.2785185,2.67703704 69.9407407,1.88592593 71.4851852,1.78148148 C73.3451852,1.65259259 75.2051852,2.70148148 76.162963,4.2837037 C76.762963,5.27703704 76.6296296,5.6837037 77.9274074,5.81481481 C78.9407407,5.91703704 79.9674074,5.74148148 80.9851852,5.76814815 C82.6074074,5.80814815 84.1740741,6.5437037 85.3607407,7.65259259 C86.2651852,8.49925926 86.9474074,9.54814815 87.4496296,10.677037 C87.8118519,11.4881481 88.2385185,12.4548148 89.1874074,12.7392593 C89.7896296,12.9192593 90.4340741,12.9325926 91.0251852,13.1414815 C91.8007407,13.4148148 92.4318519,14.0059259 92.8962963,14.6837037 C95.1607407,17.9925926 99.0318519,20.5503704 99.4296296,24.9103704 C99.562963,26.3814815 99.0940741,28.097037 97.7474074,28.6992593 C96.7251852,29.157037 95.5407407,28.8348148 94.4696296,28.5081481 C95.0962963,29.0325926 95.7785185,29.6592593 95.8051852,30.477037 C95.842963,31.7014815 94.162963,32.5259259 93.2074074,32.9481481 C91.7807407,33.5792593 90.0496296,33.3548148 88.6118519,32.8859259 C86.6251852,32.2348148 84.7051852,31.1525926 82.6140741,31.1903704 C82.0096296,31.2014815 81.4096296,31.3081481 80.8162963,31.4303704 C76.5718519,32.3037037 72.9296296,34.4281481 68.9274074,36.0214815 C64.7674074,37.6792593 60.5074074,39.0659259 56.2496296,40.4525926 C54.5785185,40.997037 52.882963,41.5459259 51.1274074,41.6548148 C50.0874074,41.717037 49.0385185,41.6237037 48.002963,41.7459259 C46.5851852,41.9103704 44.8474074,43.0348148 43.4651852,42.9303704 C42.3074074,42.8414815 41.4162963,40.9459259 41.0518519,39.8903704 C40.5051852,38.3103704 40.582963,36.5925926 40.6651852,34.9237037 C40.7185185,33.8903704 40.7851852,32.8103704 41.1540741,31.8325926 C41.5274074,30.8437037 42.202963,30.4125926 42.2585185,29.3414815" id="Fill-153" fill="#DF5331"></path><path d="M33.8251852,48.8659259 L52.9451852,71.5881481 C52.9451852,71.5881481 52.9562963,54.277037 61.0118519,53.7681481 L45.7518519,37.3659259 L33.8251852,48.8659259" id="Fill-154" fill="#F6C9B6"></path><path d="M90.6518519,28.2659259 C89.4918519,31.877037 88.3918519,35.2037037 86.9651852,38.3703704 C85.9874074,40.5392593 85.9140741,48.8659259 82.4185185,51.5814815 C82.2162963,51.7392593 78.2407407,48.6659259 78.0896296,48.877037 C77.7762963,49.3148148 75.1918519,51.7992593 72.7162963,54.1459259 C69.9674074,56.7503704 65.7918519,57.1303704 62.6162963,55.0637037 C55.0340741,50.1281481 42.0918519,41.7903704 41.8274074,42.2014815 L60.6007407,13.0303704 L90.6518519,28.2659259" id="Fill-155" fill="#F6C9B6"></path><path d="M41.6874074,41.8525926 C41.3162963,41.1148148 41.5874074,40.3237037 41.7362963,39.5303704 C42.1940741,37.0925926 42.9762963,34.6525926 43.6696296,32.2814815 C44.4540741,29.6014815 45.3296296,26.9392593 46.4896296,24.3948148 C48.1407407,20.7792593 50.4051852,17.3748148 53.5007407,14.8837037 C55.4074074,13.3503704 57.5851852,12.1948148 59.7474074,11.0481481 C60.6674074,10.5614815 61.6007407,10.0681481 62.6096296,9.81037037 C64.7651852,9.26148148 67.0318519,9.82814815 69.182963,10.3948148 C70.8607407,10.837037 72.5651852,11.2903704 74.0474074,12.1925926 C76.2451852,13.537037 77.8451852,15.8125926 80.2407407,16.7637037 C83.3162963,17.9814815 86.5896296,18.277037 89.7385185,19.1614815 C92.622963,19.9703704 92.862963,23.4437037 92.6696296,26.0148148 C92.5718519,27.3125926 92.2918519,28.6281481 91.6051852,29.7325926 C91.0562963,30.617037 90.2185185,31.9303704 89.2740741,32.4125926 L89.0851852,31.9103704 L88.3674074,31.5903704 C85.3007407,31.0903704 82.9051852,28.6059259 79.9118519,27.7814815 C76.5607407,26.857037 72.8496296,28.2237037 70.3985185,30.6903704 C69.042963,32.0525926 68.0274074,33.7192593 67.3074074,35.4948148 C66.9362963,36.4081481 66.642963,37.3503704 66.4118519,38.3103704 C66.3474074,38.5837037 66.3051852,39.5837037 66.1162963,39.7548148 C65.882963,39.9637037 65.0385185,39.7325926 64.6851852,39.677037 C64.2140741,39.6037037 63.7251852,39.4348148 63.4451852,39.0503704 C63.0985185,38.5748148 63.1740741,37.9214815 63.262963,37.3392593 C63.7118519,34.4414815 64.4496296,31.1459259 63.5807407,28.2481481 C62.8696296,25.8859259 59.962963,25.1325926 57.7940741,25.7237037 C56.8162963,25.9925926 55.9140741,26.637037 55.4918519,27.5592593 C55.0074074,28.6214815 55.2162963,29.8748148 55.6407407,30.9614815 C56.4518519,33.0259259 57.2896296,35.0592593 58.0385185,37.157037 C58.1740741,37.537037 58.3096296,37.9637037 58.1385185,38.3281481 C58.002963,38.6192593 57.7096296,38.7948148 57.4296296,38.9548148 C56.7207407,39.357037 55.9985185,39.7659259 55.202963,39.9481481 C53.8985185,40.2459259 52.1785185,40.3703704 50.8674074,40.1548148 C50.2940741,40.0592593 49.722963,39.9659259 49.1496296,39.8703704 C48.8407407,39.8192593 48.5296296,39.7681481 48.2318519,39.6659259 C47.5785185,39.4414815 47.4340741,39.1192593 46.8185185,39.6681481 C46.4007407,40.0414815 46.1362963,40.5925926 46.1451852,41.157037 C46.1518519,41.6748148 46.362963,42.1881481 46.2807407,42.6992593 L46.1874074,42.9103704 L45.9407407,42.9725926 C45.2074074,42.9881481 44.5074074,43.2103704 43.7718519,43.1881481 C42.9496296,43.1637037 42.1740741,42.6681481 41.7518519,41.9703704 L41.6874074,41.8525926" id="Fill-156" fill="#DF5331"></path><path d="M33.8251852,48.8659259 L15.702963,58.6348148 C13.6451852,59.7437037 11.9874074,61.4681481 10.962963,63.5681481 L4.28740741,77.2192593 C1.40740741,83.1059259 0.122962963,89.6437037 0.560740741,96.1814815 C1.3762963,108.394815 1.81407407,120.643704 2.44296296,132.865926 C2.90296296,141.881481 3.36518519,150.897037 3.82962963,159.91037 C4.00074074,163.277037 4.17407407,166.643704 4.34518519,170.008148 C4.40740741,171.199259 3.95185185,174.683704 4.63851852,175.688148 L4.66740741,176.379259 C15.0562963,184.665926 25.8185185,176.839259 36.4496296,169.012593 C44.7585185,162.897037 52.9851852,156.781481 60.8940741,158.352593 C61.1496296,158.403704 60.9118519,149.808148 60.8918519,148.592593 C60.8674074,147.01037 60.8962963,145.441481 60.782963,143.845926 C60.6118519,141.45037 60.2962963,139.05037 60.2007407,136.652593 C60.0051852,131.641481 59.7718519,126.63037 59.5896296,121.621481 C59.5385185,120.217037 59.8985185,118.857037 60.0340741,117.468148 C60.1451852,116.339259 59.942963,115.47037 60.2785185,114.328148 C60.9585185,112.01037 60.7362963,109.537037 60.5051852,107.132593 C60.3740741,105.763704 60.002963,104.201481 60.1385185,102.832593 C60.2607407,101.619259 60.4607407,100.485926 60.4251852,99.2303704 C60.3451852,96.4414815 59.9096296,93.6792593 59.5896296,90.9125926 C59.3451852,88.8103704 59.3807407,86.7237037 59.2274074,84.6259259 C59.0807407,82.6237037 58.3562963,80.5081481 57.7851852,78.5903704 C56.5451852,74.4192593 54.6518519,70.4637037 51.6051852,67.3037037 L33.8251852,48.8659259" id="Fill-157" fill="url(#linearGradient-5)"></path><g id="Group-160" transform="translate(59.376296, 136.079259)"><mask id="mask-7" fill="white"><use xlink:href="#path-6"></use></mask><g id="Clip-159"></g><path d="M1.40666667,7.76666667 C1.26222222,5.74888889 1.01555556,3.72888889 0.884444444,1.70888889 L0.908888889,1.71555556 C1.03777778,3.73333333 1.26222222,5.75333333 1.40666667,7.76666667" id="Fill-158" fill="url(#linearGradient-8)" mask="url(#mask-7)"></path></g><path d="M16.5051852,143.372593 C11.5518519,142.777037 7.95407407,138.377037 8.35185185,133.403704 L17.2270226,76.7677799 L30.7443183,76.057037 L33.8251852,128.423704 L60.2607407,137.788148 C60.3918519,139.808148 60.6385185,141.828148 60.782963,143.845926 C60.8962963,145.441481 60.8674074,147.01037 60.8918519,148.59037 C60.9007407,149.134815 60.9540741,151.143704 60.9851852,153.201481 C46.799924,150.066919 36.160978,147.715996 29.0683474,146.148715 C26.2765336,145.531799 22.0888128,144.606425 16.5051852,143.372593 Z" id="Fill-161" fill="#E21406"></path><path d="M39.1740741,79.4074264 C38.2187674,88.8119862 36.4358045,104.19593 33.8251852,125.559259 L82.4185185,142.772593 L81.0474074,154.77037 L16.5051852,140.51037 C11.5518519,139.914815 7.95185185,135.512593 8.35185185,130.539259 C11.0766657,99.6916476 12.7740258,80.6334484 13.4439323,73.3646617 C14.4487921,62.4614815 21.2957799,59.257822 27.7548683,60 C33.55976,60.6670078 40.6070341,65.3005868 39.1740741,79.4074264 Z" id="Fill-162" fill="url(#linearGradient-9)"></path><path d="M126.038519,163.432593 L126.038519,163.432593 C126.927407,164.083704 128.176296,163.89037 128.825185,163.001481 L158.014074,123.472593 C158.665185,122.581481 158.46963,121.334815 157.580741,120.685926 C156.691852,120.034815 155.442963,120.228148 154.794074,121.117037 L125.605185,160.645926 C124.956296,161.537037 125.14963,162.783704 126.038519,163.432593" id="Fill-163" fill="#4F5062"></path><path d="M63.6785185,160.039259 L129.796296,168.023704 C131.360741,168.212593 132.785185,167.097037 132.974074,165.53037 C133.162963,163.963704 132.047407,162.541481 130.480741,162.352593 L64.3651852,154.368148 C62.7985185,154.177037 61.3740741,155.294815 61.1851852,156.861481 C60.9962963,158.425926 62.1118519,159.85037 63.6785185,160.039259" id="Fill-164" fill="#4F5062"></path><path d="M61.4851852,155.95037 C61.8451852,156.783704 62.742963,157.445926 63.8762963,157.583704 L129.991852,165.568148 C131.242963,165.719259 132.354074,165.177037 132.840741,164.312593 C132.965185,164.697037 133.025185,165.103704 132.974074,165.53037 C132.785185,167.097037 131.360741,168.212593 129.796296,168.023704 L63.6785185,160.039259 C62.1118519,159.85037 60.9962963,158.425926 61.1851852,156.861481 C61.2251852,156.53037 61.3474074,156.232593 61.4851852,155.95037" id="Fill-165" fill="#393A46"></path><polyline id="Fill-166" fill="#F8F9F9" points="79.6896296 159.785926 84.9074074 160.414815 85.1496296 158.414815 79.9296296 157.785926 79.6896296 159.785926"></polyline><polyline id="Fill-167" fill="#F8F9F9" points="73.5051852 159.039259 78.722963 159.668148 78.9651852 157.668148 73.7474074 157.039259 73.5051852 159.039259"></polyline><polyline id="Fill-168" fill="#F8F9F9" points="117.407407 164.341481 122.625185 164.97037 122.867407 162.97037 117.64963 162.339259 117.407407 164.341481"></polyline><polyline id="Fill-169" fill="#FFFFFF" points="51.6051852 67.3037037 47.8762963 76.057037 33.8251852 48.8659259 51.6051852 67.3037037"></polyline><polyline id="Fill-170" fill="#FFFFFF" points="51.6051852 67.3037037 53.782963 74.2681481 54.0696296 62.4614815 51.6051852 67.3037037"></polyline><path d="M130.37037,75.1104939 C130.37037,82.0352433 136.005149,87.6468717 142.958466,87.6468717 L148.758532,87.6468717 L148.758532,94.507723 C148.758532,95.8283262 150.415157,96.430641 151.267887,95.4168068 L160.155244,87.6468717 L220.782275,87.6468717 C227.735592,87.6468717 233.37037,82.0352433 233.37037,75.1104939 L233.37037,37.4623038 C233.37037,30.5412954 227.735592,24.9259259 220.782275,24.9259259 L142.958466,24.9259259 C136.005149,24.9259259 130.37037,30.5412954 130.37037,37.4623038 L130.37037,75.1104939 Z" id="Fill-181" fill="#FFFFFF"></path></g></g></g></g></svg> 