<?xml version="1.0" encoding="UTF-8"?> <svg xmlns="http://www.w3.org/2000/svg" xmlns:xlink="http://www.w3.org/1999/xlink" width="186px" height="151px" viewBox="0 0 186 151"><!-- Generator: Sketch 54.1 (76490) - https://sketchapp.com --><title>Group 68</title><desc>Created with Sketch.</desc><defs><path d="M136.488629,142.283225 C176.773522,125.106692 198.72139,88.225417 178.15497,40.4624298 C166.966898,14.4795047 114.31663,-6.49348884 77.1812151,1.8631305 C10.7821762,16.8049721 10.8688149,38.0736688 3.23682709,62.0967241 C-8.4139065,98.7695052 13.1568867,117.993804 39.7027154,132.676501 C76.5854654,153.076627 102.711409,156.685038 136.488629,142.283225 Z" id="path-1"></path></defs><g id="New" stroke="none" stroke-width="1" fill="none" fill-rule="evenodd"><g id="Benefits" transform="translate(-549.000000, -762.000000)"><g id="Group-68" transform="translate(549.000000, 762.000000)"><mask id="mask-2" fill="white"><use xlink:href="#path-1"></use></mask><use id="Mask" fill="#F6F5FA" transform="translate(93.000000, 75.500000) scale(-1, 1) translate(-93.000000, -75.500000) " xlink:href="#path-1"></use><g mask="url(#mask-2)"><g transform="translate(-5.000000, 23.000000)"><path d="M101.068767,52.1690953 L98.5637604,38.6128108 C99.9976347,35.410808 100.808581,31.8726519 100.808581,28.1388812 C100.808581,13.9406768 89.3015021,2.4316989 75.1032977,2.4316989 C60.9050932,2.4316989 49.3961153,13.9406768 49.3961153,28.1388812 C49.3961153,42.3351865 60.9050932,53.8460635 75.1032977,53.8460635 C80.1171098,53.8460635 84.7795753,52.3875 88.7336499,49.9071823 L101.068767,52.1690953 Z" id="Fill-1" fill="#AFB0CD"></path><path d="M63.1288329,25.8606354 C63.1288329,21.9578384 66.290953,18.7976174 70.19375,18.7976174 C72.1688881,18.7976174 73.9484116,19.6104627 75.2322514,20.9208909 C76.514192,19.6104627 78.2956146,18.7976174 80.2726519,18.7976174 C84.1735497,18.7976174 87.3356699,21.9578384 87.3356699,25.8606354 C87.3356699,27.7598066 86.5797997,29.4842541 85.3586326,30.7529006 L75.260739,40.7995166 L64.9083564,30.536395 C64.7944061,30.4053522 64.5038329,30.0350138 64.5038329,30.0350138 C63.6416091,28.8632251 63.1288329,27.419855 63.1288329,25.8606354" id="Fill-3" fill="#FFFFFF"></path><polygon id="Fill-5" fill="#E2E0EC" points="53.7148308 171.501053 8.96085981 165.955473 8.2011913 100.137794 53.3862742 100.137794"></polygon><polygon id="Fill-7" fill="#D5D2E3" points="37.4753971 169.488881 53.7152106 171.502003 53.386654 100.136844 36.8429731 100.136844"></polygon><polygon id="Fill-9" fill="#AFB0CD" points="79.8709772 174.743128 40.7784358 169.613467 40.0187673 86.4791436 87.2568543 86.4791436 87.2568543 152.414572"></polygon><path d="M99.7465642,111.638225 L4.3644855,123.922065 C2.91921616,124.106285 1.85947859,125.346443 1.90126036,126.803108 L2.88503108,161.829523 C2.92491367,163.233011 3.96565953,164.38011 5.36155041,164.552935 L79.2146236,173.705041 L99.7465642,111.638225 Z M80.526951,175.780836 L5.12795235,166.436913 C2.79387086,166.148239 1.0523308,164.231975 0.985859807,161.8827 L0.0020890884,126.856285 C-0.0662810773,124.417749 1.70374655,122.347652 4.12329075,122.038087 L102.498463,109.368715 L80.526951,175.780836 Z" id="Fill-11" fill="#41444C"></path><polygon id="Fill-13" fill="#41444C" points="8.01032459 165.972376 7.25065608 122.487051 9.14982735 122.452866 9.90949586 165.938191"></polygon><polygon id="Fill-15" fill="#41444C" points="20.366143 167.975432 19.6064744 124.490107 21.5056457 124.455922 22.2653142 167.941247"></polygon><polygon id="Fill-17" fill="#41444C" points="20.366143 167.973532 19.6064744 121.185549 21.5056457 121.157061 22.2653142 167.943146"></polygon><polygon id="Fill-19" fill="#41444C" points="32.7210117 169.153108 31.9613432 119.062465 33.8605145 119.032079 34.620183 169.122721"></polygon><polygon id="Fill-21" fill="#41444C" points="45.0758805 170.329075 44.316212 117.763812 46.2153833 117.739123 46.9750518 170.302486"></polygon><polygon id="Fill-23" fill="#41444C" points="57.4305594 172.331941 56.6708909 116.465919 58.5700622 116.43933 59.3297307 172.305352"></polygon><polygon id="Fill-25" fill="#41444C" points="81.3798688 167.500639 80.6202003 112.8178 82.5193715 112.791212 83.2790401 167.47405"></polygon><polygon id="Fill-27" fill="#41444C" points="69.7854282 173.511516 69.0257597 114.342835 70.9249309 114.316247 71.6845994 173.484927"></polygon><polygon id="Fill-29" fill="#41444C" points="1.20939227 132.614572 0.964399171 130.730594 98.1734807 118.104903 98.4184738 119.99078"></polygon><path d="M77.2569579,187.900017 L74.1233253,186.86307 L100.480024,107.198532 C101.228298,104.927124 103.340176,103.40019 105.735031,103.40019 L111.263519,103.40019 L111.263519,106.70095 L105.735031,106.70095 C104.768353,106.70095 103.915625,107.316281 103.611758,108.23548 L77.2569579,187.900017 Z" id="Fill-34" fill="#41444C"></path><path d="M118.324637,105.05057 C118.324637,107.287794 116.512828,109.099603 114.275604,109.099603 C112.04028,109.099603 110.22847,107.287794 110.22847,105.05057 C110.22847,102.815245 112.04028,101.003436 114.275604,101.003436 C116.512828,101.003436 118.324637,102.815245 118.324637,105.05057" id="Fill-36" fill="#AFB0CD"></path><polygon id="Fill-47" fill="#41444C" points="155.751606 112.272548 163.179265 154.263225 193.098809 200.587811 185.954126 206.101105 156.919596 173.418267 146.626088 156.49855"></polygon><polygon id="Fill-48" fill="#1B1B32" points="157.50625 174.079178 156.26799 158.390124 157.601209 122.727486 155.751416 112.272548 146.625898 156.49855 156.919406 173.418267"></polygon><path d="M131.47241,103.39981 L131.47241,115.093008 L138.900069,156.912759 L145.089468,206.70903 L156.782666,206.70903 L152.965331,158.390314 L154.353626,121.265314 C154.365021,121.003229 154.515055,120.765832 154.750552,120.644285 C159.456699,118.251329 162.423204,113.416039 162.423204,108.136343 L162.423204,104.731129 C162.423204,102.543284 161.629351,100.429506 160.18788,98.7829247 L131.47241,103.39981 Z" id="Fill-49" fill="#41444C"></path><polygon id="Fill-50" fill="#1B1B32" points="134.77355 115.093577 134.77355 109.356181 131.694993 109.819579 131.47279 115.093577 138.900449 156.913329 145.089848 206.709599 148.392507 206.709599 142.201209 156.913329"></polygon><polygon id="Fill-55" fill="#986047" points="135.220994 37.0604282 147.497238 37.0604282 147.497238 26.125 135.220994 26.125"></polygon><path d="M135.220615,26.1255698 L135.220615,35.3365504 L135.307977,35.3232562 C139.617196,34.6680421 143.235117,31.7262258 144.752555,27.6411084 L145.31471,26.1255698 L135.220615,26.1255698 Z" id="Fill-56" fill="#7A4630"></path><path d="M130.576571,7.24514848 C130.576571,7.24514848 123.562932,9.82422307 124.696737,17.1493267 L123.471771,20.6494993 L122.465211,22.0358943 C122.23731,22.3473584 122.117662,22.719596 122.117662,23.1051278 L122.117662,23.6995684 C122.117662,24.4687327 122.74059,25.0916609 123.509755,25.0916609 L125.313968,25.0916609 L125.313968,29.0647272 C125.313968,31.657096 127.418249,33.7594786 130.008719,33.7594786 L134.036861,33.7594786 C138.395459,33.7594786 142.412206,31.3950104 144.525984,27.5814744 L146.879057,23.340625 L144.609548,7.24514848 C144.609548,7.24514848 135.839175,4.14949931 130.576571,7.24514848" id="Fill-57" fill="#9F6E59"></path><path d="M144.608788,7.24514848 C144.608788,7.24514848 144.439762,7.18627417 144.151088,7.09701312 C143.987759,7.08561809 143.822531,7.07802141 143.681992,7.02484461 C143.602227,6.99635704 143.558546,6.94318025 143.495874,6.90329765 C140.979472,6.19680594 134.706509,4.81610843 130.575811,7.24514848 C130.575811,7.24514848 127.153505,8.51379489 125.478436,11.7784703 C126.164037,11.8202521 126.883823,11.7727728 127.618802,11.6474275 C128.86086,11.4385186 132.514865,10.2382424 133.527124,11.3834427 C134.100673,12.0329593 133.223256,13.2180421 133.067524,13.8979454 C132.809237,15.0165573 133.620183,16.2415228 133.620183,17.3563363 C133.927849,19.359962 134.358961,19.4663156 134.431129,21.4927314 L135.766247,21.4699413 C135.954265,20.3266402 135.954265,20.790038 136.685445,19.8879316 C137.416626,18.9858253 138.647289,18.4084772 139.762103,18.7332355 C140.745874,19.0200104 142.407648,20.1766057 142.373463,22.1365504 C142.305093,26.0184565 145.224119,26.0621374 145.31528,25.8988087 L146.878298,23.340625 L144.608788,7.24514848 Z" id="Fill-58" fill="#7A4630"></path><path d="M149.972617,9.81092887 C150.154938,9.16141229 150.468301,8.52708909 150.455007,7.85288329 C150.428419,6.66020373 149.34779,5.70112224 148.191195,5.4124482 C147.313778,5.19024517 146.105905,5.66693715 145.332942,5.37446478 C144.605559,5.09908494 144.607459,4.40968577 144.220028,3.80954765 C143.245753,2.30160566 141.394061,2.21424378 139.756975,2.2598239 C137.745753,2.3186982 135.812396,2.76310428 133.875242,3.1125518 C132.479351,3.36134323 131.081561,3.56265539 129.647686,3.53036948 C128.335359,3.50188191 127.00404,3.44680594 125.761982,3.02708909 C124.521823,2.60737224 123.36143,1.76414019 122.858149,0.552468923 C122.258011,2.70992749 121.967438,5.07819406 122.831561,7.14259323 C124.020442,9.98185428 126.563432,10.4566471 129.269751,9.99704765 C130.511809,9.78623964 134.165815,8.58786257 135.178073,9.73306285 C135.751623,10.3806802 134.874206,11.5676623 134.718474,12.2475656 C134.460186,13.3661775 134.665297,14.3822341 134.665297,15.4951485 C134.972963,17.5006733 135.692749,19.4435256 135.766816,21.4699413 C136.211222,21.4623446 136.655628,21.4566471 137.103833,21.4490504 C137.289952,20.3038501 137.605214,19.1396581 138.338294,18.2375518 C139.069475,17.3354454 140.298239,16.7580974 141.413052,17.0828557 C142.396823,17.3696305 143.093819,18.2926278 143.369199,19.2801968 C143.648377,20.2658667 143.57241,21.3142093 143.454662,22.3321651 C143.363501,23.1507079 143.249551,24.0186291 143.593301,24.7669026 C144.155456,25.9956664 145.665297,26.4039883 146.989019,26.6679731 C147.254903,26.723049 147.535981,26.7762258 147.796167,26.6907631 C148.326036,26.5179385 148.514054,25.8779178 148.626105,25.3309565 C149.216747,22.4366195 150.160635,19.3257769 150.164434,16.3592714 C150.168232,14.1638294 149.378177,11.9247065 149.972617,9.81092887" id="Fill-59" fill="#28262B"></path><path d="M149.972617,9.81092887 C150.154938,9.16141229 150.468301,8.52708909 150.455007,7.85288329 C150.428419,6.66020373 149.34779,5.70112224 148.191195,5.4124482 C147.313778,5.19024517 146.105905,5.66693715 145.332942,5.37446478 C144.605559,5.09908494 144.607459,4.40968577 144.220028,3.80954765 C143.245753,2.30160566 141.394061,2.21424378 139.756975,2.2598239 C137.745753,2.3186982 135.812396,2.76310428 133.875242,3.1125518 C132.479351,3.36134323 131.081561,3.56265539 129.647686,3.53036948 C128.335359,3.50188191 127.00404,3.44680594 125.761982,3.02708909 C124.521823,2.60737224 123.36143,1.76414019 122.858149,0.552468923 C122.590366,1.51534876 122.392852,2.52190953 122.320684,3.52277279 C122.905628,4.4609634 123.878004,5.14466506 124.935843,5.50360843 C126.1798,5.92332528 127.511119,5.97650207 128.821547,6.00688881 C130.255421,6.03917472 131.653211,5.83786257 133.049102,5.58717196 C134.986257,5.23962362 136.917714,4.79331837 138.932735,4.73634323 C140.56982,4.69076312 142.417714,4.778125 143.393888,6.28606699 C143.781319,6.88430594 143.77942,7.57560428 144.506802,7.85098412 C145.279765,8.14345649 146.485739,7.6667645 147.365055,7.88706837 C148.521651,8.17764157 149.604178,9.13672307 149.628867,10.3275035 C149.642162,11.0036084 149.328798,11.6360325 149.146478,12.2874482 C148.552037,14.4012258 149.342093,16.6384496 149.338294,18.8338916 C149.334496,21.3654869 148.656492,23.9939399 148.08864,26.5103419 C148.398204,26.2387604 148.538743,25.7601692 148.626105,25.3309565 C149.216747,22.4366195 150.160635,19.3257769 150.164434,16.3592714 C150.168232,14.1638294 149.378177,11.9247065 149.972617,9.81092887" id="Fill-60" fill="#48464E"></path><path d="M162.422825,108.136723 L162.422825,104.731509 C162.422825,102.543664 161.628971,100.427987 160.1875,98.7814054 L131.47203,103.40019 L131.47203,109.864969 C145.119475,106.915556 155.509841,115.273809 162.010704,110.50309 C162.037293,110.157441 162.422825,108.486171 162.422825,108.136723" id="Fill-61" fill="#525D7A"></path><path d="M147.496668,28.6015193 L150.455577,32.5214088 L154.470425,35.3359807 C160.414831,39.8939917 161.335929,41.5671616 162.422255,48.9796271 C162.435549,49.0612914 163.683305,53.8965815 163.6947,53.980145 C163.973878,55.9970649 164.283443,57.2581146 163.935894,59.2636395 L161.863898,71.2246202 C160.756682,77.6153315 160.969389,84.1617749 162.484927,90.4632251 L164.327124,103.090815 C157.814865,111.551623 145.316419,103.19337 128.926571,107.939399 L131.6101,79.4651243 L131.078332,57.0985843 C131.087828,56.3977901 131.167593,55.7007942 131.315729,55.0151934 L135.220425,37.0604282 L147.496668,28.6015193 Z" id="Fill-62" fill="#FFFFFF"></path><path d="M162.484168,90.463605 C160.968629,84.1621547 160.757821,77.6138122 161.865038,71.225 L163.937034,59.2621202 C164.282683,57.2584945 163.971219,55.9974448 163.695839,53.9805249 C163.684444,53.8969613 162.436689,49.0616713 162.423394,48.9800069 C161.337068,41.5675414 160.414071,39.8943715 154.469665,35.3363605 L150.454817,32.5217887 L147.495908,28.6018992 L146.00126,29.6331492 L148.804437,33.3479282 L152.819285,36.1606008 C158.763691,40.720511 158.734064,42.6600474 159.472178,46.5490677 C160.210292,50.438088 159.557545,53.6580129 159.472178,56.2788692 C159.386811,58.8997256 158.602358,61.596262 158.256709,63.6017868 C157.911059,65.6073117 152.73933,75.5638861 152.20029,78.5178177 C151.66125,81.4717493 156.003056,87.5198825 157.518595,93.823232 C158.521633,99.1634243 157.905859,102.446618 155.671271,103.672814 C152.319389,105.512108 154.092818,108.373371 160.159582,106.226727 C161.739693,105.618992 163.135584,104.639019 164.328263,103.089296 L162.484168,90.463605 Z" id="Fill-63" fill="#E2E0EC"></path><path d="M138.056267,67.3936119 L136.871184,73.3760014 L116.546253,98.0367403 L113.061274,97.501174 C112.115487,97.3549378 111.162103,97.700587 110.52778,98.4165746 L108.39501,100.822825 L108.39501,102.98788 L110.04539,104.845269 L113.141039,101.74962 L116.751364,102.55107 L117.370494,104.845269 L116.958374,106.70076 L117.887068,106.70076 L120.156578,103.4 L121.704403,101.647065 L137.670735,88.1572514 L148.425742,79.7743094 L151.004817,66.2579075 L138.056267,67.3936119 Z" id="Fill-64" fill="#9F6E59"></path><polygon id="Fill-65" fill="#7A4630" points="148.006595 66.5218923 145.949793 77.2977901 135.194786 85.680732 119.767818 100.408805 117.371064 104.845269 116.957044 106.70076 117.887638 106.70076 120.157148 103.4 121.703073 101.647065 137.671305 88.1572514 148.426312 79.7743094 151.005387 66.2579075"></polygon><polygon id="Fill-66" fill="#FFFFFF" points="140.584254 43.4572169 136.871374 67.3943715 152.243267 67.3943715 156.88674 50.0606354 156.058702 43.4572169"></polygon><path d="M151.526709,54.6594786 L148.115798,67.393422 L152.242697,67.393422 L157.518595,49.9590297 C154.698325,50.0198032 152.25789,51.9341678 151.526709,54.6594786" id="Fill-67" fill="#E2E0EC"></path></g></g></g></g></g></svg> 