<?xml version="1.0" encoding="UTF-8"?> <svg xmlns="http://www.w3.org/2000/svg" xmlns:xlink="http://www.w3.org/1999/xlink" width="176px" height="158px" viewBox="0 0 176 158"><!-- Generator: Sketch 54.1 (76490) - https://sketchapp.com --><title>Group 16</title><desc>Created with Sketch.</desc><defs><path d="M132.343181,146.10102 C167.834752,125.161636 190.270816,89.8800957 165.571895,42.1958801 C152.123489,16.2321275 106.488983,-6.84947681 72.1198485,1.87899427 C10.666988,17.4857159 10.7471728,39.7008243 3.68370486,64.7928543 C-7.09914559,103.097496 6.99718332,120.703358 30.2856323,137.576358 C57.0815105,156.990569 95.8490242,167.631911 132.343181,146.10102 Z" id="path-1"></path></defs><g id="New" stroke="none" stroke-width="1" fill="none" fill-rule="evenodd"><g id="Benefits" transform="translate(-919.000000, -759.000000)"><g id="Group-16" transform="translate(919.000000, 759.000000)"><mask id="mask-2" fill="white"><use xlink:href="#path-1"></use></mask><use id="Mask" fill="#F6F5FA" transform="translate(88.000000, 79.000000) scale(-1, 1) translate(-88.000000, -79.000000) " xlink:href="#path-1"></use><polygon id="Fill-9" fill="#E2E0EC" mask="url(#mask-2)" points="141.859567 221.263985 19.3800909 216.134323 17 133 165 133 165 198.935428"></polygon><g transform="translate(51.000000, 31.000000)"><path d="M94,65 C90.5124171,64.0512315 87.1428351,63.1852217 84,63.0029557 C84.0177387,63.0019704 84.0354774,63.0009852 84.0524449,63 C87.1806263,63.1901478 90.5316983,64.053202 94,65" id="Fill-22" fill="#0C1930"></path><path d="M73,60 L73,60 C73.3302256,53.8294912 74.3930827,46.8907699 76,41 C74.393985,46.8907699 73.3311278,53.8303467 73,60" id="Fill-26" fill="#304173"></path><polygon id="Fill-42" fill="#304173" points="71.061588 22 66 22 71.061588 22 73 13"></polygon><polygon id="Fill-44" fill="#577794" points="73 13 73 13 74 9"></polygon><path d="M69,22.5 L66,22.5 L69,22.5 Z" id="Fill-48" fill="#C4BEB5"></path><path d="M0,63.8435 L0,63.8405 C1.3229246,63.5685 2.65879665,63.3305 4,63.1565 L4,63.1585 C2.65803503,63.3335 1.3229246,63.5715 0,63.8435" id="Fill-104" fill="#5F83AB"></path><path d="M3.81326913,69 L1.06038137,92.7145277 C0.702764666,95.9326557 1.95214048,99.1109699 4.31773696,101 L18,101 L15.9326711,96.4993647 L10.5912471,91.7767895 L14.3606793,70.356205 L3.81326913,69" id="Fill-144" fill="#F9D1BF"></path><path d="M19,101 L3.66785374,101 C3.0385715,100.419956 2.4800622,99.745614 2,99 C2.4800622,99.745614 3.0385715,100.419956 3.66785374,101 L19,101 L18.4329638,99.5734649 L19,99.560307 L19,101" id="Fill-146" fill="#98A0B6"></path><path d="M3.501,99.5015 L3.501,99.5015 C3.5,99.5005 3.5,99.4995 3.499,99.4985 C3.5,99.4995 3.5,99.5005 3.501,99.5015" id="Fill-148" fill="#2C4278"></path><path d="M18,102 L4.31862515,102 C3.75709605,101.540246 3.25871996,101.005749 2.83034478,100.414761 C2.8295839,100.413892 2.8295839,100.413023 2.82882302,100.412154 C1.44934843,98.5096938 0.78738324,96.0162455 1.06053899,93.4993315 L2.99773828,76.3806659 C4.11090503,76.1955475 7.12627062,76 7.12627062,76 L7.1270315,76 C6.4650663,83.5116326 2.68806031,94.0798904 2.68806031,94.0798904 C2.50925362,95.7311806 3.07154359,96.9983287 3.97394672,98.0960021 C5.57940253,100.048001 7.8924763,101.02487 10.2359853,101.02487 C10.2968556,101.02487 10.3584869,101.02487 10.4193572,101.023131 L17.4940151,100.869301 L18,102" id="Fill-152" fill="#E7C5B8"></path><path d="M71.883041,69 L74.9331286,92.7145277 C75.3293534,95.9326557 73.9442528,99.1109699 71.3241112,101 L58,100.928844 L58.455237,96.4993647 L64.3733174,91.7767895 L60.1960968,70.356205 L71.883041,69" id="Fill-154" fill="#F9D1BF"></path><path d="M58,100 L58,98.5263158 L58.1114927,98.5263158 L58,100 M75,91.8947368 L74.2579709,86.0100395 C74.2670108,86.0061782 74.2775574,86.0030891 74.288104,86 L75,91.8947368" id="Fill-156" fill="#98A0B6"></path><path d="M71.3241112,100 L58,99.9300067 L58.1256117,98.7242893 L64.7729142,98.7242893 C67.3568055,98.7242893 69.922993,97.85104 71.7599585,96.0562125 C72.7328167,95.1038041 73.3288399,93.9897446 73.1298845,92.4065635 C73.1298845,92.4065635 68.5193458,81.2418037 68.1290222,74.0224978 C68.4797233,74.0091658 68.8337965,74 69.1887127,74 C69.8327887,74 70.484452,74.0258308 71.131057,74.0833253 C71.1125103,74.0841586 71.0931206,74.0858251 71.0745739,74.0874916 C71.5980964,74.131654 72.1207759,74.1916482 72.6358681,74.2783066 L74.9331286,91.8499503 C75.3293534,95.0154793 73.9442528,98.1418453 71.3241112,100" id="Fill-162" fill="#E7C5B8"></path><path d="M58.1585962,33.5589942 C57.4888976,31.467921 56.6997004,30.7294876 56.4186631,29.0530025 C55.8946542,25.9233987 56.7689169,24.1678321 56.0270434,21.0711975 C55.2795005,17.949836 54.0206405,15.720145 52.7345104,13.1691511 C52.1392298,11.9872043 50.9389359,10.3477271 50.5663793,9.07429075 C49.9767681,7.05739833 48.3721021,5.91409044 46.8575787,4.48075333 C43.123914,0.946452271 36.0451468,0.0720435111 31.6182029,2.00239171 C26.8462392,4.08357412 24.0885715,7.1527016 21.536559,11.6290983 C19.6016945,15.0232801 19.9026504,21.3646094 18.3997642,25.0942026 C16.8014966,29.0604966 19.4010532,33.2747285 19.2920285,36.4283375 C19.1830037,39.5819465 16.5366631,40.5866867 15.112849,42.3892791 C13.4266256,44.5223881 13.1243273,47.3954115 13.7884499,50.5835357 C14.2257989,52.6770816 9.55681015,51.8221896 11.4568486,52.7412067 C13.3560772,53.6610482 15.4990874,53.9124385 17.6016023,53.9816739 C22.5784721,54.14652 27.8574367,53.2307997 31.6510344,49.9487133 C32.778423,48.9711757 33.8912333,47.5848197 35.4098062,47.2501821 C36.7510099,46.9542833 37.1000792,47.5831713 38.2388064,47.9977593 C40.9519901,48.9835392 44.8403469,48.7527546 47.4312348,47.5131117 C49.0121705,46.7564679 50.4643312,45.4978677 52.2104877,45.4591289 C53.30548,45.4352262 54.1777483,45.8910257 55.0427275,46.3468253 C55.981408,46.8413637 56.9136094,47.3350779 58.1171291,47.2180371 C59.9483256,47.0400033 59.3325898,49.6997956 60.1133388,47.9977593 C61.3929896,45.2052658 61.3841949,41.3960839 59.4485205,39.0280692 C57.5128462,36.6600545 58.8282948,35.6500673 58.1585962,33.5589942 Z" id="Fill-164" fill="#F8E8E3"></path><path d="M34.1800668,47.0784273 C32.7003992,47.4216454 31.6160988,48.843549 30.5168044,49.8453062 C27.1179092,52.9418775 22.4934546,53.9825216 18,53.9985835 C22.6173521,54.0433878 27.4130536,53.0331769 30.9113824,49.8453062 C32.0106768,48.843549 33.0941881,47.4216454 34.5738557,47.0784273 C34.7293195,47.0420766 34.8690001,47.0209424 35,47.0099527 C34.7679881,46.9862825 34.5036208,47.0031898 34.1800668,47.0784273" id="Fill-166" fill="#73A7D6"></path><path d="M51.7071968,45.0003613 C50.0466944,45.0495532 48.6651256,46.6467184 47.1610418,47.6075294 C45.7078132,48.5358948 43.828479,49.0047873 42,48.9890878 C43.9471413,49.0801451 45.99137,48.5997395 47.5463091,47.6075294 C49.0218832,46.6655578 50.380336,45.1186311 52,45.0139676 C51.9036832,45.0055945 51.8073663,44.998268 51.7071968,45.0003613" id="Fill-170" fill="#73A7D6"></path><path d="M30.5963619,38.8791372 C30.5909577,39.6722576 29.874098,40.5884725 29.776015,41.2918798 L15.1656349,48.1634478 C12.6496455,48.7447807 14.9900254,76 14.9900254,76 L56.365871,76 C56.365871,76 60.8151825,47.5632032 58.1486708,46.7837074 L44.2415376,40.801817 C43.7884108,39.8174196 43.499925,38.9651729 43.3760802,38.2450766 C43.2522354,37.5249804 43.2081154,36.4432882 43.24372,35 L29.776015,35.5122636 C29.776015,35.5122636 30.6085701,37.0874364 30.5963619,38.8791372 Z" id="Fill-172" fill="#F9D1BF"></path><path d="M29.3736616,41.5337223 C29.4674041,40.7443841 29.3929975,39.9165796 29.3736616,38.9643835 C29.3304583,36.8368394 29.1791976,35.5405888 29,35 C29.7587044,35.9475489 31.6109188,36.775613 32.8005379,37.3031861 C34.0656591,37.8646001 35.0499491,38.7678954 36.3712365,38.7678954 C37.3785456,38.7678954 38.0350459,38.9483809 39,38.6837267 C37.4614138,40.5276292 33.674337,46.7338145 32.8005379,52 C30.8632635,47.6319035 29.3929975,41.4052999 29.3736616,41.5337223 Z" id="Fill-174" fill="#E7C5B8"></path><path d="M30.008209,42.4848831 L12.4390198,46.3774617 C9.88325325,46.9516868 5.23537558,53.9898525 4.67802283,56.5190419 L2,76.5680259 C5.68773518,75.9588762 12.8511156,75.8297364 14.9892786,78.2111056 C15.9124454,79.2393502 15.116697,82.2672302 15.116697,82.2672302 L18.3909389,89.868606 L54.8909678,91 L59.4517246,76.7686392 C59.4517246,76.7686392 66.8033554,74.2646279 73,75.4829272 L69.3509014,52.491994 C68.7894383,49.7621913 66.7384131,47.5668158 64.0289224,46.7984751 L44.702428,42 C44.2993258,45.8040179 43.7538161,48.7848174 43.0658989,50.9423985 C42.3779817,53.0999796 40.975771,56.2280038 38.8592666,60.3264711 L38.1416133,60.2842367 C38.1416133,60.2842367 34.7927251,55.4535773 32.9824268,51.1013459 C30.8466094,45.9665174 30.1839576,41.2592801 30.008209,42.4848831 Z" id="Fill-176" fill="#FFFFFF"></path><path d="M3.4795,77.5035 L3.4795,77.5035 C3.4935,77.5015 3.5075,77.4985 3.5205,77.4965 C3.5065,77.4995 3.4935,77.5015 3.4795,77.5035" id="Fill-178" fill="#99965C"></path><path d="M3.4455,77.509 L3.4455,77.509 C3.4815,77.503 3.5175,77.497 3.5545,77.491 L3.5545,77.493 C3.5165,77.498 3.4805,77.504 3.4455,77.509" id="Fill-180" fill="#8A8045"></path><path d="M4.70309798,57.0326012 C5.84778565,48.8079821 9.50880862,46.8891341 12.1147722,46.3107578 L30.5410911,42.0204419 C30.5586933,41.9010035 30.8526603,42.317268 31,42.9474946 L14.576799,46.6761494 C11.9716736,47.2545256 9.86333398,49.1297101 9.37493016,51.7997285 C8.88652633,54.4697469 9.86333398,56.3421617 9.37493016,62.0405059 C8.94595511,67.0454778 7.99566066,73.5019853 7.06399497,76.6552442 C5.3825659,76.6740598 3.25104143,76.8036619 2.00044712,76.9999989 C1.96943372,77.0040893 3.55841032,65.2572203 4.70309798,57.0326012 Z" id="Fill-184" fill="#E2E0EC"></path><path d="M72.651,75.529 C72.551,75.509 72.45,75.49 72.349,75.472 L72.349,75.471 C72.45,75.489 72.551,75.509 72.651,75.529" id="Fill-186" fill="#CDB15E"></path><path d="M72.558,75.511 C72.519,75.504 72.481,75.496 72.442,75.49 L72.442,75.489 C72.48,75.495 72.52,75.503 72.558,75.51 L72.558,75.511" id="Fill-188" fill="#A48E45"></path><path d="M72,75.6165 C71.3412527,75.5125 70.6717063,75.4405 70,75.3875 C70.0237581,75.3865 70.0485961,75.3845 70.0723542,75.3835 C70.7203024,75.4355 71.362851,75.5125 72,75.6155 L72,75.6165" id="Fill-190" fill="#7B6B34"></path><path d="M42.1951901,10.6161035 C39.3539062,9.89572345 36.3435178,9.96931506 33.3894976,10.0486305 C32.5170159,10.0723433 31.6167587,10.1009623 30.8227023,10.42313 C28.0671962,11.540087 28.9674535,14.8476209 28.6970495,16.9122743 C28.5091555,18.3448576 27.7714674,19.6719596 27.3752562,21.0718355 C26.5852845,23.8666812 27.1873622,26.8070747 27.8523435,29.6280863 C28.6129057,32.850581 30.2582035,37.5285542 33.8788389,39.2350618 C37.749455,41.0593159 41.691144,39.3985987 44.26039,36.5939408 C46.2259245,34.4458835 48.202896,30.9977079 48.038693,28.1807847 C47.921055,26.2028059 47.4357984,24.1741306 48.0681025,22.2738317 C48.3172663,21.5256504 48.7339008,20.821624 48.9054561,20.057089 C49.1129564,19.1331055 48.9487534,18.1755969 48.7036743,17.2589726 C47.7772753,13.7928079 46.2153044,11.6357561 42.1951901,10.6161035 Z" id="Fill-194" fill="#F9D1BF"></path><path d="M27.0000042,24 C26.9992488,23.0875733 27.0997209,22.1805137 27.3467463,21.2903226 C27.4389087,20.9621556 27.5507122,20.6378224 27.6685592,20.3157895 C27.5507122,20.6378224 27.4389087,20.9621556 27.3467463,21.2903226 C27.0997209,22.1805137 26.9992488,23.0875733 27.0000042,24 M28.8171875,16.6315789 C28.865535,16.1822507 28.8730893,15.6822674 28.8730893,15.1578947 C28.8730893,15.6822674 28.865535,16.1822507 28.8171875,16.6315789 M28.4674237,14.4210526 C28.466806,12.6722185 28.5599154,10.811459 29.9782825,10 C28.5599154,10.811459 28.466806,12.6722185 28.4674237,14.4210526 M30.7337118,10.5272105 C31.438009,10.2560526 32.2300668,10.2302632 33,10.2096316 C32.2300668,10.231 31.438009,10.2560526 30.7337118,10.5272105" id="Fill-196" fill="#14274B"></path><path d="M48,15 C47.0121753,12.4946555 45.3782468,10.867456 42.0795455,10.0197336 C42.0527597,10.0131557 42.0267857,10.0074001 42,10 C42.0267857,10.0074001 42.0527597,10.0131557 42.0795455,10.0197336 C45.3782468,10.867456 47.0121753,12.4946555 48,15" id="Fill-200" fill="#14274B"></path><path d="M47.3766841,30 C47.2578593,29.2591714 47.0164671,28.5460152 46.5785928,27.8882037 C45.751497,26.6492726 42.4234656,25.6775775 41.7133234,24.3872549 C40.1498877,21.5441176 43.4199102,17.7047755 41.0078593,15.3225806 C39.9028817,14.2314991 40.5288174,12.0319418 39,11.4041746 L39.8093189,10 C40.2481287,10.065623 40.6841317,10.1391524 41.1154566,10.2292853 C41.1463323,10.2356104 41.1762725,10.2419355 41.2062126,10.2482606 C45.0095434,11.0626186 46.8920284,12.6280835 48.0306886,15.03716 C48.269274,15.5447502 48.4760479,16.0887097 48.6603668,16.6714105 C48.851235,17.2738773 48.9990644,17.8937381 49,18.5104364 C49,18.8013915 48.967253,19.0907653 48.8914671,19.376186 C48.694985,20.1162239 48.2178144,20.7961733 47.9324476,21.5196078 C47.6573728,22.2169513 47.5675524,22.9308982 47.5675524,23.6527514 C47.568488,24.8371284 47.8145584,26.0444339 47.898765,27.2319734 L47.898765,27.2501581 L47.898765,27.2541113 C47.9549027,28.1285579 47.7415793,29.063093 47.3766841,30" id="Fill-202" fill="#E7C5B8"></path><path d="M55.798123,40.8506106 C56.0586669,40.1234018 56.0108607,39.3209074 55.9598674,38.547369 C55.8029036,36.179597 55.6467366,33.8134796 55.488976,31.4473623 C55.4164699,30.3462076 55.3415734,29.231816 55.016491,28.1811275 C54.3384393,25.9895733 52.6317567,24.2513871 52.0214305,22.0383228 C51.498749,20.1454289 51.8341894,18.1267833 51.797538,16.1569492 C51.6979416,10.8836512 46.1149703,6.50467945 41.3534694,6.02401015 C37.4190164,5.62772686 36.8636673,10.244965 40.1280363,11.892974 C41.4291626,12.5498612 42.9406364,12.9320801 43.8824192,14.0737731 C45.9356969,16.5656422 43.8840127,20.633544 45.2154163,23.6085643 C45.8201652,24.9587404 47.0511757,25.9010508 47.7547241,27.1982788 C48.7339552,29.0009955 48.5666333,31.2107505 48.3714245,33.2707618 C48.147532,35.6211602 47.925233,37.972386 47.7021373,40.3227844 C47.2989714,44.5784864 51.0629155,50.7750665 55.7941391,48.5206365 C54.7870211,47.3772889 53.6452489,45.9501726 53.9161509,44.2823081 C54.1368563,42.9222042 55.3487444,42.1064729 55.798123,40.8506106" id="Fill-204" fill="#F8E8E3"></path><path d="M61,75 L57,74.8367831 C57,74.8367831 58.0016221,73.296016 58.000811,72.9353068 C58,72.5721493 58.8540146,64 58.8540146,64 L61,75" id="Fill-206" fill="#E2E0EC"></path><path d="M16,75 L17.6094891,64 C17.6094891,64 18.25,72.5721493 18.2493917,72.9353068 C18.2487835,73.296016 19,74.8367831 19,74.8367831 L16,75" id="Fill-208" fill="#E2E0EC"></path><path d="M26.419341,11.7850035 C24.1381481,15.8951526 21.984805,20.1608297 21.0416117,24.8104663 C19.7631145,31.113397 18.2530404,34.7188904 19.3321242,41.1417072 C19.5661133,42.5341681 17.7764987,39.9548783 15.9825821,43.3659619 C14.7866378,45.6400176 13.4591104,46.4833775 12,45.8960415 C12.6896802,47.2986805 13.6954792,48 15.0173971,48 C17.0002739,48 20.1624649,45.5667217 21.7650089,44.2325838 C23.3675529,42.8992559 29.4258197,44.3532025 29.8636447,41.7748104 C30.3014697,39.1964183 26.9025968,36.5102617 27.0915571,34.6046746 C27.2805174,32.6990876 26.8692072,29.4770592 26.7978244,27.0166135 C26.7264416,24.5561678 27.6769319,22.4605367 28.1875267,21.7752418 C30.0039577,19.3370178 27.9905256,18.1316764 30.3014697,15.3734861 C32.1653417,13.1483029 34.9973337,12.8526378 37.0927826,10.9935932 C38.9228831,9.37108066 37.7432885,6.32532568 35.6904561,5.37352725 C31.7222902,3.53473368 28.0009787,8.93446844 26.419341,11.7850035 Z" id="Fill-210" fill="#F8E8E3"></path><g id="Group-15" transform="translate(15.000000, 0.000000)"><path d="M5.31034483,23.56 C2.37759106,23.56 0,21.3483512 0,18.6199172 C0,15.8916488 2.37759106,13.68 5.31034483,13.68 L5.31034483,23.56 Z" id="Fill-5" fill="#C5C3D3"></path><path d="M38.6896552,23.56 C41.6224089,23.56 44,21.3483512 44,18.6199172 C44,15.8916488 41.6224089,13.68 38.6896552,13.68 L38.6896552,23.56 Z" id="Fill-6" fill="#C5C3D3"></path><path d="M19.5048132,37.24 C10.1151573,36.0227275 3.03448276,28.0523726 3.03448276,18.7002579 C3.03448276,8.38885435 11.5423689,0 21.9999161,0 C32.4576311,0 40.9655172,8.38885435 40.9655172,18.7002579 L39.2872346,18.7002579 C39.2872346,9.30131229 31.532226,1.65480221 21.9999161,1.65480221 C12.467774,1.65480221 4.71276543,9.30131229 4.71276543,18.7002579 C4.71276543,27.224806 11.166098,34.4898842 19.7236613,35.5992636 L19.5048132,37.24 Z" id="Fill-11" fill="#C5C3D3"></path><path d="M16.705157,35.2233153 C16.5480771,36.4521882 17.6025569,37.6705354 19.0604252,37.9447669 C20.5184484,38.2189984 21.8274472,37.4453611 21.984527,36.2164882 C22.1414519,34.9879912 21.0869721,33.769644 19.6291038,33.4952245 C18.1710806,33.220993 16.8620819,33.9948183 16.705157,35.2233153" id="Fill-12" fill="#A4A1B3"></path></g><path d="M65.9075059,104 L13.0924941,104 C11.3854374,104 10,102.580481 10,100.827776 L10,70.1722238 C10,68.419519 11.3854374,67 13.0924941,67 L65.9075059,67 C67.6161587,67 69,68.419519 69,70.1722238 L69,100.827776 C69,102.580481 67.6161587,104 65.9075059,104" id="Fill-212" fill="#F7F8FB"></path><path d="M43,84.0004229 C43,86.2095359 41.2088795,88 39,88 C36.7902748,88 35,86.2095359 35,84.0004229 C35,81.7904641 36.7902748,80 39,80 C41.2088795,80 43,81.7904641 43,84.0004229" id="Fill-214" fill="#EBECF1"></path></g></g></g></g></svg> 