<?xml version="1.0" encoding="UTF-8"?> <svg xmlns="http://www.w3.org/2000/svg" xmlns:xlink="http://www.w3.org/1999/xlink" width="181px" height="158px" viewBox="0 0 181 158"><!-- Generator: Sketch 54.1 (76490) - https://sketchapp.com --><title>Group 8</title><desc>Created with Sketch.</desc><defs><path d="M130.598113,150.410543 C172.161203,138.249136 196.001368,91.0073581 170.466236,42.7250944 C156.562519,16.4357084 109.383004,-6.9353819 73.8502623,1.90256032 C10.3168438,17.7050191 10.3997434,40.1987459 3.09713354,65.6054764 C-8.05078283,104.390529 12.5890676,124.722105 37.9892431,140.250493 C73.2802236,161.825621 91.5856921,161.825621 130.598113,150.410543 Z" id="path-1"></path><linearGradient x1="4.58972779%" y1="51.9611124%" x2="112.202057%" y2="49.1751475%" id="linearGradient-3"><stop stop-color="#AFB0CD" offset="0%"></stop><stop stop-color="#C1C2D8" offset="100%"></stop></linearGradient><linearGradient x1="50%" y1="0%" x2="69.5861188%" y2="76.5810712%" id="linearGradient-4"><stop stop-color="#753B29" offset="0%"></stop><stop stop-color="#4C2012" offset="100%"></stop></linearGradient></defs><g id="New" stroke="none" stroke-width="1" fill="none" fill-rule="evenodd"><g id="Benefits" transform="translate(-179.000000, -758.000000)"><g id="Group-8" transform="translate(179.000000, 758.000000)"><mask id="mask-2" fill="white"><use xlink:href="#path-1"></use></mask><use id="Mask" fill="#F6F5FA" transform="translate(90.500000, 79.000000) scale(-1, 1) translate(-90.500000, -79.000000) " xlink:href="#path-1"></use><g mask="url(#mask-2)"><g transform="translate(24.000000, 26.000000)"><g id="Group-5" transform="translate(48.888889, 10.476190)"><path d="M7.40333442,69.4103956 C3.31402419,69.4103956 -3.69482223e-13,66.0963714 -3.69482223e-13,62.0070611 L-3.69482223e-13,7.40333442 C-3.69482223e-13,3.31546257 3.31402419,4.77484718e-12 7.40333442,4.77484718e-12 L72.1375613,4.77484718e-12 C76.2268715,4.77484718e-12 79.5408957,3.31546257 79.5408957,7.40333442 L79.5408957,62.0070611 C79.5408957,66.0963714 76.2268715,69.4103956 72.1375613,69.4103956 L7.40333442,69.4103956 Z" id="Fill-419" fill="#FFFFFE"></path><path d="M72.9186008,1.7408297e-13 L6.62373325,1.7408297e-13 C2.9644982,1.7408297e-13 3.24007488e-12,2.96593658 3.24007488e-12,6.62373325 L3.24007488e-12,14.165152 L79.5408957,14.165152 L79.5408957,6.62373325 C79.5408957,2.96593658 76.5763975,1.7408297e-13 72.9186008,1.7408297e-13" id="Fill-420" fill="url(#linearGradient-3)"></path><rect id="Rectangle" fill="#E2E0EC" x="9.32181178" y="23.0460208" width="43.1193927" height="3.64389234" rx="1.82194617"></rect><rect id="Rectangle" fill="#F4F4F7" x="9.32181178" y="32.1557517" width="60.731539" height="2.42926156" rx="1.21463078"></rect><rect id="Rectangle" fill="#F4F4F7" x="9.32181178" y="38.2289056" width="59.5169082" height="2.42926156" rx="1.21463078"></rect><rect id="Rectangle" fill="#F4F4F7" x="9.32181178" y="44.3020595" width="54.6583851" height="2.42926156" rx="1.21463078"></rect><rect id="Rectangle" fill="#F4F4F7" x="9.32181178" y="50.3752134" width="55.8730159" height="2.42926156" rx="1.21463078"></rect><rect id="Rectangle" fill="#F4F4F7" x="9.32181178" y="56.4483673" width="43.1193927" height="2.42926156" rx="1.21463078"></rect><path d="M10.1578294,7.08257601 C10.1578294,7.75286041 9.61412226,8.29656751 8.94383786,8.29656751 C8.27355345,8.29656751 7.73128473,7.75286041 7.73128473,7.08257601 C7.73128473,6.4122916 8.27355345,5.8685845 8.94383786,5.8685845 C9.61412226,5.8685845 10.1578294,6.4122916 10.1578294,7.08257601" id="Fill-423" fill="#FFFFFE"></path><path d="M15.4280484,7.08257601 C15.4280484,7.75286041 14.8843413,8.29656751 14.2154953,8.29656751 C13.5452109,8.29656751 13.0015038,7.75286041 13.0015038,7.08257601 C13.0015038,6.4122916 13.5452109,5.8685845 14.2154953,5.8685845 C14.8843413,5.8685845 15.4280484,6.4122916 15.4280484,7.08257601" id="Fill-425" fill="#FFFFFE"></path><path d="M20.6997058,7.08257601 C20.6997058,7.75286041 20.1559987,8.29656751 19.4857143,8.29656751 C18.8154299,8.29656751 18.2717228,7.75286041 18.2717228,7.08257601 C18.2717228,6.4122916 18.8154299,5.8685845 19.4857143,5.8685845 C20.1559987,5.8685845 20.6997058,6.4122916 20.6997058,7.08257601" id="Fill-426" fill="#FFFFFE"></path></g><g id="Group-61"><g id="Group-17" transform="translate(0.000000, 14.269735)"><path d="M21.9074603,13.0568254 C21.9074603,13.0568254 25.9792063,27.3964021 21.9074603,33.606455 L34.0563492,33.606455 C34.0563492,33.606455 32.2008995,16.1065608 34.0563492,15.5233862 L21.9074603,13.0568254 Z" id="Fill-1" fill="#D6AA98"></path><path d="M34.0557672,15.523037 L24.582963,13.6000741 C24.858836,15.6475873 25.6270899,17.7847302 26.6851852,19.2793333 C28.0715344,21.2360529 28.0249735,23.0786984 28.8875132,25.3171111 C29.370582,26.5719259 31.4448677,26.9327725 33.5051852,27.1876931 C33.1583069,22.1276931 32.9592593,15.8675873 34.0557672,15.523037" id="Fill-3" fill="#A58877"></path><path d="M41.7946455,3.8828254 C41.7946455,3.8828254 44.2355979,8.92187302 44.2658624,11.2627196 C44.2658624,11.2627196 43.6035344,15.8617672 44.9782434,17.9895979 C45.1260741,18.217746 44.9887196,18.5203915 44.7175026,18.5308677 L43.2170794,18.5925608 L42.8085079,21.1953122 C42.3754921,23.9610265 39.9403598,25.9643069 37.1420529,25.8548889 C34.6941164,25.7606032 30.0811005,27.0899153 28.8868148,25.3171111 C27.5470265,23.328963 27.1791958,21.5224021 25.3912593,19.9242011 C22.6162328,17.444836 20.4045926,12.1182751 21.8281905,9.52483598 C21.8281905,9.52483598 28.2291429,-7.11251852 41.7946455,3.8828254" id="Fill-5" fill="#D6AA98"></path><path d="M41.384328,3.69972487 C39.7186138,1.60448677 36.1951217,0.390412698 33.8694074,0.179724868 C31.373746,-0.0472592593 29.007291,0.789671958 27.0528995,2.32152381 C24.5653862,4.27125926 23.2989312,6.84491005 21.8287725,9.52448677 C20.9441164,11.1354921 21.4632698,13.7999365 22.6470794,16.1826878 C23.5934286,20.757291 24.7877143,29.2127407 21.9079259,33.6069206 L25.9854921,33.6069206 C25.8073968,33.6069206 27.0040106,30.1381376 27.0715238,29.7598307 C27.3834815,28.0033228 27.0063386,25.8557037 27.028455,24.0607831 C27.0761799,20.2555979 27.2752275,16.4539048 27.6244339,12.6661799 C27.6640106,12.229672 27.7303598,11.7477672 28.0644339,11.4649101 C28.6150159,10.9993016 29.4775556,11.3985608 29.9513122,11.9398307 C30.4262328,12.4811005 30.7812593,13.1818413 31.4377672,13.4786667 C32.5144868,13.9640635 33.736709,13.0735873 34.339672,12.0597249 C34.944963,11.0446984 35.2627407,9.83062434 36.1171323,9.0146455 C36.9366032,8.23242328 38.1262328,7.9530582 39.2599894,7.95422222 C40.0375556,7.95538624 40.884963,8.05432804 41.5275026,7.61549206 C42.2119471,7.14755556 42.4144868,6.18956614 42.2270794,5.38173545 C42.0850688,4.77062434 41.7905714,4.20840212 41.384328,3.69972487" id="Fill-7" fill="#C99E8D"></path><path d="M22.4031005,83.9911111 L3.02447619,78.4492063 C0.546275132,77.7007407 -0.693407407,74.9292063 0.399608466,72.5825397 L18.4943175,36.1731217 L27.3688148,44.7659259 L10.2239471,72.544127 L25.4772804,79.0253968 L22.4031005,83.9911111 Z" id="Fill-9" fill="#D6AA98"></path><path d="M19.4771005,44.3063704 L16.0222857,48.8728254 C15.4449312,51.4290159 14.276254,53.8071111 13.1192169,56.1572698 C11.4313862,59.5829841 9.74471958,63.0075344 8.05805291,66.4320847 C6.9242963,68.7333545 5.78704762,71.4862646 6.99413757,73.7514497 C8.57604233,76.7220317 13.121545,77.5124021 15.9943492,78.5088042 C18.1489524,79.2549418 20.3431323,80.0092275 22.6222857,80.093037 C22.8062011,80.1000212 22.9936085,80.1011852 23.1693757,80.0441481 C23.573291,79.9114497 24.012127,79.2980106 23.9783704,78.8580106 C23.9178413,78.0816085 23.3439788,78.1200212 22.6863069,77.8406561 C20.9426032,77.0991746 19.1988995,76.3576931 17.4551958,75.6162116 C15.0445079,74.593037 12.6349841,73.5686984 10.2242963,72.5443598 L26.8895873,45.5425608 C24.5964656,44.3540952 21.9995344,43.8209735 19.4771005,44.3063704" id="Fill-11" fill="#C99E8D"></path></g><g id="Group-33" transform="translate(10.476190, 93.423175)"><path d="M33.9875556,10.6191323 L33.4532698,18.7288677 L43.141418,64.2223069 C43.5313651,65.6982857 43.4254392,67.2615661 42.8411005,68.6723598 L24.4588783,107.092042 L16.8682963,104.206434 C16.8682963,104.206434 20.3987725,96.7415661 21.6163386,87.3956402 C22.6627937,79.3697143 27.0045926,71.9141587 29.5340106,68.9342646 L6.52946032,31.8823069 L27.909037,8.64960847 L33.9875556,10.6191323 Z" id="Fill-21" fill="#41444C"></path><path d="M21.8006032,15.287672 C21.7982751,15.29 6.5286455,31.8819577 6.5286455,31.8819577 L29.5343598,68.9339153 C27.0049418,71.9138095 22.6619788,79.3693651 21.6166878,87.395291 C20.3991217,96.742381 16.8686455,104.207249 16.8686455,104.207249 C16.8686455,104.207249 21.3652593,105.914868 21.3827196,105.921852 C21.5340423,105.980053 23.2812381,98.0530688 23.5617672,97.1078836 C24.8910794,92.6112698 27.1574286,88.4708466 28.4343598,84.0021693 C29.4877989,80.3122222 33.067164,77.2857672 35.0203915,73.8542328 C35.4801799,73.0475661 35.9422963,72.2339153 36.2228254,71.3480952 C37.1202857,68.4997354 35.9911852,65.4022751 34.4523492,62.8425926 C31.6424021,58.1690476 29.5366878,54.4616402 28.3528783,49.0570899 C27.234254,43.9482011 26.908328,38.6868254 27.1108677,33.4685185 C27.237746,30.2267196 27.5322434,26.8079894 26.0981693,23.8967725 C25.2146772,22.1018519 19.9032487,17.3491534 21.8006032,15.287672" id="Fill-23" fill="#1B1B32"></path><path d="M10.4530265,1.00338624 C10.4530265,1.00338624 -5.4777672,15.837672 2.80424339,31.0572487 C4.48392593,34.1430688 5.28826455,37.6269841 5.22191534,41.138836 C5.08339683,48.4337566 3.95778836,58.2767196 5.71662434,66.4982011 C5.71662434,66.4982011 3.03821164,69.9797884 3.71101587,83.3474074 C3.99387302,88.9835979 6.79916402,98.1630688 6.79916402,106.012063 L17.083291,106.012063 L18.1658307,72.1809524 C18.1658307,72.1809524 28.6536614,33.5075132 30.5475238,13.4805291 L33.1188466,7.70116402 L10.4530265,1.00338624 Z" id="Fill-31" fill="#1B1B32"></path></g><g id="Group-51" transform="translate(13.804233, 44.534286)"><path d="M0.126190476,60.8812169 C-0.105449735,63.7935979 0.879312169,66.9539153 2.54386243,69.079418 C3.23761905,69.9664021 4.05941799,70.7451323 4.85793651,71.5389947 C6.44798942,73.1208995 7.9542328,74.7959259 9.26608466,76.615291 C18.8808995,89.9421693 11.3357143,105.202487 8.40470899,119.414021 C6.79486772,127.214127 6.57835979,135.300582 7.76566138,143.175185 C8.35465608,147.078148 9.27888889,150.968307 9.3289418,154.90037 L13.7557143,154.90037 L14.838254,121.070423 C14.838254,121.070423 25.3260847,82.3958201 27.2199471,62.368836 L29.7912698,56.5894709 L7.12544974,49.8928571 C4.88238095,51.9846032 2.67074074,54.6758201 1.1668254,57.3239683 C0.559206349,58.3925397 0.227460317,59.6135979 0.126190476,60.8812169" id="Fill-37" fill="#41444C"></path><path d="M1.30033862,57.2640212 C1.30033862,57.2640212 8.14012698,48.7073016 4.15102646,33.1978836 C2.50975661,26.8143915 1.01049735,20.3924868 0.621714286,13.8134392 C0.56584127,12.8787302 0.414518519,11.9288889 0.487851852,10.9871958 C1.30615873,0.601798942 10.3622434,-1.50973545 19.9805503,2.53058201 C19.9980106,2.53756614 20.0166349,2.54571429 20.0340952,2.55269841 C22.6659471,3.66666667 25.6621376,6.83047619 26.7819259,9.46 C27.2626667,10.5879365 28.1147302,11.9056085 30.6709206,14.9122751 C34.5273228,19.4461376 35.7448889,21.2724868 28.8445714,28.5115344 C28.8445714,28.5115344 28.5733545,50.2298413 30.6592804,59.508254 C30.6592804,59.508254 12.8090159,66.8753439 1.30033862,57.2640212" id="Fill-39" fill="#FFFFFF"></path><path d="M18.6316825,6.53877249 L26.7577143,24.7522116 C27.3734815,26.1304127 28.941418,26.8020529 30.3591958,26.2875556 C34.5985608,24.7487196 43.1925291,21.2287196 48.5318942,16.3328466 L51.1718942,9.43136508 L53.8107302,3.74861376 C54.5580317,4.37136508 54.8921058,5.35961905 54.6767619,6.3082963 L54.0132698,9.2288254 L62.5909418,1.72205291 C63.1857566,2.7941164 62.9680847,4.13390476 62.0648042,4.96152381 L59.2909418,7.60501587 L60.3874497,11.077291 C60.8460741,12.5276614 60.567873,14.1084021 59.6459683,15.3166561 L58.1688254,17.2512593 C57.3004656,18.389672 56.2388783,19.3662857 55.0317884,20.1380317 L51.7818413,22.2193016 C51.7818413,22.2193016 36.1862857,33.1657566 28.0660741,37.1432169 C26.2327407,38.0418413 24.0245926,37.5261799 22.7697778,35.9140106 C17.9530582,29.7330582 6.19295238,13.9873439 6.51655026,8.01009524 C6.51655026,8.01009524 6.52819048,7.93326984 6.55612698,7.79591534 C7.79697354,1.74533333 16.1162328,0.899089947 18.6316825,6.53877249" id="Fill-41" fill="#D6AA98"></path><path d="M16.7685503,31.7710265 C16.3518307,30.9725079 15.6022011,30.4114497 14.8909841,29.8585397 C12.6188148,28.0962116 10.4548995,26.1138836 8.98357672,23.6438307 C6.53913228,19.5418201 6.24579894,14.5691217 5.54389418,9.84668783 C5.21214815,7.60711111 4.71511111,5.29769312 3.87934392,3.18266667 C1.99828571,4.88330159 0.766751323,7.45578836 0.488550265,10.9874286 C0.41405291,11.9291217 0.566539683,12.878963 0.621248677,13.813672 C1.01119577,20.3927196 2.50929101,26.8146243 4.15172487,33.1981164 C8.13966138,48.7075344 1.29987302,57.264254 1.29987302,57.264254 C5.24706878,60.5595979 9.93807407,61.8574815 14.3997672,62.1426667 C14.386963,61.8085926 14.3660106,61.4780106 14.333418,61.1520847 C13.946963,57.2467937 12.6665397,53.4555767 12.4768042,49.5363175 C12.2859048,45.5914497 13.2380741,41.5976931 15.1878095,38.1626667 C16.3227302,36.1628783 17.8324656,33.8092275 16.7685503,31.7710265" id="Fill-43" fill="#E2E0EC"></path><path d="M2.8002963,54.7325079 C1.98897354,56.4017143 1.29987302,57.264254 1.29987302,57.264254 C12.8085503,66.8755767 30.6599788,59.5084868 30.6599788,59.5084868 C30.4329947,58.5004444 30.2351111,57.3399153 30.061672,56.0816085 C27.039873,57.1885926 13.0052698,61.7166349 2.8002963,54.7325079" id="Fill-45" fill="#AFB0CD"></path><path d="M27.6938201,60.5082646 C29.5457778,59.9681587 30.659746,59.5083704 30.659746,59.5083704 C30.4339259,58.500328 30.2360423,57.3397989 30.0614392,56.0814921 C29.4654603,56.300328 28.4387937,56.6518624 27.1001693,57.0208571 C27.2782646,58.278 27.4749841,59.4490053 27.6938201,60.5082646" id="Fill-47" fill="#E2E0EC"></path><path d="M51.8199048,20.1028783 C47.7272063,24.044254 42.4949312,26.5445714 37.3615979,28.9773757 C35.6330265,29.7968466 33.903291,30.6163175 32.1758836,31.4357884 C30.6929206,32.1388571 29.0970476,32.8605503 27.4732381,32.6219259 C25.2860423,32.3018201 23.7472063,30.3753651 22.4400106,28.5932487 L16.1473122,20.0213968 C14.5840317,17.8912381 13.0091111,15.741291 11.903291,13.3410794 C10.6007513,10.514836 9.82667725,7.20552381 8.24942857,4.61674074 C7.4427619,5.42689947 6.82583069,6.4791746 6.55577778,7.79568254 C6.52784127,7.93303704 6.51620106,8.00986243 6.51620106,8.00986243 C6.19260317,13.9871111 17.952709,29.7328254 22.7694286,35.9137778 C24.0242434,37.5259471 26.2335556,38.0416085 28.0668889,37.1441481 C36.1859365,33.1655238 51.7814921,22.2190688 51.7814921,22.2190688 L55.0326032,20.1377989 C56.2385291,19.3660529 57.3001164,18.3894392 58.1684762,17.2510265 L59.6467831,15.3164233 C60.3510159,14.3933545 60.6746138,13.2526138 60.5861481,12.1188571 C57.1476296,13.8241481 54.6717566,17.3557884 51.8199048,20.1028783" id="Fill-49" fill="#C99E8D"></path></g><g id="Group-54" transform="translate(18.624339, 9.613651)" fill="#753B29"><path d="M0.281693122,14.8179894 C0.939365079,18.0132275 2.42349206,20.9651852 3.6794709,23.9741799 L3.6794709,23.9741799 C3.9762963,24.6853968 4.60603175,25.5525926 5.30444444,25.2301587 L5.30444444,25.2301587 C5.50116402,25.1393651 5.64433862,24.9647619 5.77820106,24.7924868 L5.77820106,24.7924868 C7.33915344,22.768254 8.32391534,20.3051852 8.58931217,17.7617989 L8.58931217,17.7617989 C8.66613757,17.0377778 8.69407407,16.2741799 9.05957672,15.6456085 L9.05957672,15.6456085 C9.42624339,15.013545 10.2748148,14.5875132 10.9022222,14.958836 L10.9022222,14.958836 C11.162963,15.1124868 11.3410582,15.3732275 11.4912169,15.6362963 L11.4912169,15.6362963 C11.932381,16.4010582 12.2280423,17.2496296 12.7378836,17.9701587 L12.7378836,17.9701587 C13.2488889,18.6906878 14.0613757,19.2889947 14.9413757,19.2098413 L14.9413757,19.2098413 C15.5408466,18.0155556 15.5222222,16.6222222 15.6979894,15.2987302 L15.6979894,15.2987302 C15.9005291,13.7564021 16.9539683,10.7311111 18.7989418,10.5821164 L18.7989418,10.5821164 C19.4589418,10.5285714 20.1352381,10.8673016 20.8138624,11.2037037 L20.8138624,11.2037037 C21.7660317,11.6786243 22.7216931,12.153545 23.6342857,11.5401058 L23.6342857,11.5401058 C24.2221164,11.1455026 24.4374603,10.3714286 24.417672,9.6637037 L24.417672,9.6637037 C24.367619,7.72793651 22.9556614,6.11227513 21.4785185,4.85862434 L21.4785185,4.85862434 C18.4962963,2.32687831 14.7632804,0.485396825 10.8510053,0.478412698 L10.8510053,0.478412698 C10.8451852,0.478412698 10.8393651,0.478412698 10.833545,0.478412698 L10.833545,0.478412698 C3.17777778,0.478412698 -1.16751323,7.76984127 0.281693122,14.8179894" id="Fill-52"></path></g><g id="Group-57" transform="translate(13.968254, 0.301481)" fill="url(#linearGradient-4)"><path d="M7.07608466,1.62380952 C5.65015873,2.19301587 4.22306878,2.80412698 2.98687831,3.71322751 L2.98687831,3.71322751 C1.75068783,4.62232804 0.704232804,5.86550265 0.295661376,7.34613757 L0.295661376,7.34613757 C-0.462116402,10.0932275 1.11047619,12.9741799 3.11142857,15.0053968 L3.11142857,15.0053968 C3.51068783,15.4104762 3.94603175,15.8074074 4.4826455,15.9983069 L4.4826455,15.9983069 C6.82232804,16.8270899 9.40412698,14.3605291 11.0756614,13.0731217 L11.0756614,13.0731217 C13.3129101,11.3515344 14.9227513,8.66497354 14.7097354,5.72814815 L14.7097354,5.72814815 C14.6724868,5.21714286 14.5584127,4.70730159 14.3791534,4.21957672 L14.3791534,4.21957672 C13.7249735,2.44677249 12.1989418,0.978941799 10.3353439,0.86952381 L10.3353439,0.86952381 C10.2538624,0.864867725 10.172381,0.862539683 10.0908995,0.862539683 L10.0908995,0.862539683 C9.05375661,0.862539683 8.04455026,1.2373545 7.07608466,1.62380952" id="Fill-55"></path></g></g></g></g></g></g></g></svg> 